<?xml version="1.0" encoding="UTF-8"?>
<svg width="1920px" height="220px" viewBox="0 0 1920 220" version="1.1" xmlns="http://www.w3.org/2000/svg" xmlns:xlink="http://www.w3.org/1999/xlink">
    <g stroke="none" stroke-width="1" fill="none" fill-rule="evenodd">
        <g>
            <path d="M1920,2.11170033e-06 C1920,41.5876818 1920,69.9551609 1920,85.1024396 C1396.43751,194.47103 756.43751,236.95255 -1.13686838e-13,212.54702 C-1.13686838e-13,163.976803 -1.13686838e-13,93.1842055 -1.13686838e-13,0.1692262 L1920,2.11170033e-06 Z" fill="#B5B1FF" transform="translate(960.000000, 109.612890) scale(-1, 1) rotate(-180.000000) translate(-960.000000, -109.612890) "></path>
            <path d="M1920,3.78286005 L1920,36.0960476 C1597.54174,106.075458 1276.72232,156.026618 957.541744,185.949518 C638.361162,215.872428 319.180581,225.920718 -2.27373675e-13,216.094388 L-2.27373675e-13,2.99999897 L1920,3.78286005 Z" fill="#FAFAFF" transform="translate(960.000000, 111.369054) scale(-1, 1) rotate(-180.000000) translate(-960.000000, -111.369054) "></path>
        </g>
    </g>
</svg>