<?xml version="1.0" encoding="UTF-8"?>
<svg width="297" height="259" viewBox="0 0 297 259" version="1.1" xmlns="http://www.w3.org/2000/svg" xmlns:xlink="http://www.w3.org/1999/xlink">
    <defs>
        <linearGradient x1="49.9992867%" y1="100.009217%" x2="49.9992867%" y2="-2.61975384e-15%" id="linearGradient-1">
            <stop stop-color="#808080" stop-opacity="0.25" offset="0%"></stop>
            <stop stop-color="#808080" stop-opacity="0.12" offset="54%"></stop>
            <stop stop-color="#808080" stop-opacity="0.1" offset="100%"></stop>
        </linearGradient>
    </defs>
    <g stroke="none" stroke-width="1" fill="none" fill-rule="evenodd">
        <g transform="translate(-1015.000000, -3570.000000)">
            <g transform="translate(585.000000, 2244.000000)">
                <g transform="translate(0.000000, 284.000000)">
                    <g transform="translate(0.000000, 1042.000000)">
                        <g transform="translate(430.000000, 0.000000)">
                            <rect fill="#6C63FF" opacity="0.2" x="251" y="94" width="18" height="9"></rect>
                            <rect fill="#6C63FF" opacity="0.2" x="253" y="104" width="18" height="9"></rect>
                            <rect fill="#6C63FF" opacity="0.2" x="238" y="29" width="18" height="9"></rect>
                            <rect fill="#6C63FF" opacity="0.2" x="250" y="38" width="18" height="9"></rect>
                            <rect fill="#6C63FF" opacity="0.2" x="218" y="30" width="18" height="9"></rect>
                            <rect fill="#6C63FF" opacity="0.2" x="273" y="49" width="18" height="9"></rect>
                            <rect fill="#6C63FF" opacity="0.2" x="252" y="50" width="18" height="9"></rect>
                            <rect fill="#6C63FF" opacity="0.2" x="230" y="39" width="18" height="9"></rect>
                            <rect fill="#6C63FF" opacity="0.2" x="271" y="117" width="18" height="9"></rect>
                            <rect fill="#6C63FF" opacity="0.2" x="251" y="118" width="18" height="9"></rect>
                            <rect fill="#6C63FF" opacity="0.2" x="0" y="94" width="18" height="9"></rect>
                            <rect fill="#6C63FF" opacity="0.2" x="12" y="104" width="18" height="9"></rect>
                            <rect fill="#6C63FF" opacity="0.2" x="105" y="0" width="18" height="9"></rect>
                            <rect fill="#6C63FF" opacity="0.2" x="240" y="164" width="18" height="9"></rect>
                            <rect fill="#6C63FF" opacity="0.2" x="13" y="115" width="18" height="9"></rect>
                            <rect fill="#6C63FF" opacity="0.2" x="117" y="10" width="18" height="9"></rect>
                            <rect fill="#6C63FF" opacity="0.2" x="54" y="71" width="18" height="9"></rect>
                            <rect fill="#6C63FF" opacity="0.2" x="66" y="80" width="18" height="9"></rect>
                            <rect fill="#6C63FF" opacity="0.2" x="99" y="75" width="18" height="9"></rect>
                            <rect fill="#6C63FF" opacity="0.2" x="68" y="92" width="18" height="9"></rect>
                            <rect fill="#6C63FF" opacity="0.2" x="263" y="164" width="18" height="9"></rect>
                            <path d="M237.479422,129.550908 C236.368263,123.367676 235.6868,117.114906 235.439925,110.837497 C234.990405,100.244226 227.926969,91.07822 217.797289,87.9431837 C215.995404,87.38881 214.01201,86.8707346 211.820706,86.4054567 C192.613797,82.3268504 186.77912,85.8873813 186.115789,86.3559591 C185.554038,85.3348303 185.065487,84.2751173 184.65382,83.1848097 C184.620818,83.072615 184.591117,82.9604203 184.558115,82.8548253 C188.359431,78.8014356 190.675487,73.5800456 191.128726,68.0418287 C194.333178,64.7947829 196.204367,60.8745691 196.204367,56.6540695 C196.204367,53.0242419 194.818301,49.6188036 192.392686,46.6720435 L192.392686,40.9369158 C192.392686,34.3232346 189.765162,27.9804324 185.08814,23.3038535 C180.411117,18.6272747 174.067714,16 167.453405,16 L165.430409,16 C158.816101,16 152.472697,18.6272747 147.795674,23.3038535 C143.118652,27.9804324 140.491128,34.3232346 140.491128,40.9369158 L140.491128,47.1175224 C138.289924,49.9586874 137.042465,53.2024334 137.042465,56.6474698 C137.042465,60.7788736 138.83775,64.6198912 141.920096,67.8273389 C142.341269,73.5684362 144.763434,78.9798394 148.76462,83.1188128 C148.899926,84.0559683 149.038533,85.0624205 149.173839,86.12497 L114.819212,93.3813255 C114.819212,93.3813255 101.572385,93.9257996 93.0381806,111.530464 C85.8207387,126.442456 71.4584585,164.753636 67.204557,176.157895 C66.4356206,178.223597 66,179.40824 66,179.40824 C66,179.40824 66.1419067,179.266347 66.4092194,179.022159 L66,180.134206 C66,180.134206 66.2079098,179.923016 66.6039286,179.576532 C66.0033002,184.348106 65.9174961,192.541617 72.1679921,193.561268 C77.4086403,194.415928 90.9128799,194.769011 101.113663,194.910904 L101.819896,194.910904 C108.581917,195 113.72686,195 113.72686,195 L113.72686,194.910904 L223.437256,194.910904 L223.437256,193.785658 C223.43849,192.765092 223.233053,191.754843 222.833328,190.815799 L222.985135,190.631007 C223.572226,191.406155 223.962874,192.311921 224.123689,193.270882 C224.111043,193.364153 224.093417,193.456681 224.070887,193.548069 L224.13689,193.379777 C224.162649,193.679475 224.140367,193.981364 224.070887,194.274034 C224.070887,194.274034 238.146053,158.012056 237.994246,136.358485 C238.03464,134.078224 237.862286,131.799165 237.479422,129.550908 Z M149.744766,91.0252373 C149.56298,89.9908091 149.446145,88.9460147 149.39495,87.8969859 C149.39495,87.8969859 149.39495,87.8771868 149.39495,87.8672873 C149.517056,88.8869389 149.635861,89.9428887 149.744766,91.0252373 Z M107.100147,168.914739 L107.100147,177.557028 L101.68789,178.715273 L107.100147,168.914739 Z" fill="url(#linearGradient-1)" fill-rule="nonzero"></path>
                            <path d="M166,18 C179.807119,18 191,29.297823 191,43.2343938 L191,54 L141,54 L141,43.2343938 C141,29.297823 152.192881,18 166,18 Z" fill="#E14B5A"></path>
                            <ellipse fill="#E14B5A" cx="166.5" cy="58.5" rx="28.5" ry="19.5"></ellipse>
                            <path d="M147.931936,77.0830689 C147.931936,77.0830689 153.807549,108.014652 147.931936,116.356677 C142.056324,124.698702 165.885196,128 165.885196,128 L190.54971,118.964177 L194,96.7198731 C194,96.7198731 178.984547,88.2035766 182.095357,71 L147.931936,77.0830689 Z" fill="#F7C4A7"></path>
                            <path d="M221.882679,181.357586 C221.882679,181.357586 223.506724,188.242978 214.670012,189.479075 C209.452335,190.230627 204.146042,190.168612 198.948171,189.295331 L197,172 L217.556444,172 L221.882679,181.357586 Z" fill="#F7C4A7"></path>
                            <path d="M70.8390853,172.81457 C70.8390853,172.81457 67.0251117,188.208609 75.6598946,189.599338 C84.2946775,190.990066 116,191 116,191 L116,172.788079 L101.644257,175.834437 L88.1686612,163 L70.8390853,172.81457 Z" fill="#F7C4A7"></path>
                            <path d="M150.185311,87.4977478 L116.840109,94.5027558 C116.840109,94.5027558 104.12933,95.0232213 95.9454074,111.802507 C87.7614846,128.581792 70,176.503903 70,176.503903 C70,176.503903 85.1554126,161.279467 102.910308,177.541561 L114.751298,156.264667 L112.138636,190 L203.888186,190 L203.888186,174.08161 C203.888186,174.08161 223.040015,184.287972 221.649671,189.996727 C221.649671,189.996727 238.040579,148.038693 234.498825,128.971323 C233.432651,123.076735 232.778745,117.115848 232.5418,111.131466 C232.113214,101.031825 225.334556,92.2927593 215.613863,89.3079204 C213.887464,88.7809081 211.989742,88.2866295 209.881163,87.8447248 C190.205484,83.6940939 185.171251,87.8447248 185.171251,87.8447248 C185.171251,87.8447248 181.359336,100.165683 181.428524,105.750049 C181.514185,112.928545 171.15579,117.688023 171.15579,117.688023 C171.15579,117.688023 155.83235,114.054584 155.137177,111.115099 C154.442005,108.175615 148.959699,90.957698 150.185311,87.4977478 Z" fill="#000000" opacity="0.1"></path>
                            <path d="M150.187005,86.497795 L116.842468,93.5030234 C116.842468,93.5030234 104.131943,94.0235053 95.9481839,110.803319 C87.7644245,127.583133 70,175.513298 70,175.513298 C70,175.513298 85.1551099,160.288384 102.909651,176.550989 L114.750404,155.273426 L112.137795,189 L203.888807,189 L203.888807,173.084383 C203.888807,173.084383 223.040254,183.291066 221.649937,189 C221.649937,189 238.040518,147.040646 234.498835,127.972676 C233.432683,122.077902 232.778789,116.116828 232.541849,110.132257 C232.113272,100.032298 225.334749,91.2929573 215.61425,88.3080246 C213.887885,87.7809957 211.990202,87.2867015 209.881665,86.8447829 C190.206379,82.6940214 185.172246,86.8447829 185.172246,86.8447829 C185.172246,86.8447829 181.360407,99.1661287 181.429593,104.750671 C181.515253,111.929393 171.157064,116.68902 171.157064,116.68902 C171.157064,116.68902 155.83393,113.055467 155.138772,110.11589 C154.443614,107.176313 148.961417,89.9578541 150.187005,86.497795 Z" fill="#575988"></path>
                            <path d="M184,84.4557798 C182.614795,80.459988 182.304297,76.1593053 183.100726,72 L149,78.1382561 C149,78.1382561 149.491994,80.7641947 150.049153,84.698123 C154.501864,89.4058129 160.655744,92.0452245 167.072364,91.9994134 C173.488985,91.9536024 179.605958,89.2265839 183.993484,84.4557798 L184,84.4557798 Z" fill="#000000" opacity="0.1"></path>
                            <path d="M190,66.550485 C189.944161,79.4066491 179.609498,89.8426124 166.779848,89.9982396 C153.950199,90.1538668 143.36643,79.9716499 143.000001,67.120608 C143.000001,66.930567 143.000001,66.740526 143.000001,66.550485 C142.997819,57.5538529 148.110171,49.3416884 156.174912,45.387125 C156.879056,45.0419931 157.602821,44.7318112 158.346205,44.4565794 C162.21265,43.0323993 166.383078,42.6438857 170.44528,43.3294396 C181.162439,45.1580146 189.226294,54.117725 189.93787,64.9875615 C189.97929,65.5052594 190,66.0262339 190,66.550485 Z" fill="#F7C4A7"></path>
                            <g opacity="0.1" transform="translate(143.000000, 44.000000)" fill="#000000">
                                <path d="M15.3206944,1.49662162 L15.3533333,1.47635135 C14.6113426,1.76013514 13.8889352,2.07995495 13.1861111,2.43581081 C5.13649152,6.51325006 0.0337255481,14.9805821 0.0359027778,24.2567568 C0.0359027778,24.4527027 0.0359027778,24.6486486 0.0359020813,24.8445946 C0.765275258,24.8241883 1.4824224,24.6458055 2.14111111,24.3209459 C7.85944444,21.5574324 11.28,13.1047297 12.6377778,7.20945946 C13.1273611,5.09797297 13.5875694,2.71959459 15.3206944,1.49662162 Z"></path>
                                <path d="M33.2753472,2.17567568 C31.4185692,1.29275395 29.4575075,0.666873698 27.4427778,0.314189189 C29.0950975,0.7077269 30.570643,1.66720246 31.6303472,3.03716216 C32.1496863,3.76822462 32.5804696,4.56243816 32.9130556,5.40202703 C26.5944723,2.54239614 19.3818217,2.69677276 13.1828472,5.82432432 C14.6548611,9.16554054 19.2210417,10.9864865 22.2695139,12.2060811 C25.6073843,13.5394144 28.9800694,14.759009 32.3875694,15.8648649 L29.3717361,13.3310811 L36.1834722,14.4527027 C36.2567777,13.0495059 36.0955693,11.64374 35.7069444,10.2972973 C37.0125,11.3851351 38.7423611,11.75 40.1588889,12.6621622 C42.8124306,14.3952703 43.9188889,17.7297297 45.3647917,20.6182432 C45.7466667,21.3817568 46.1970833,22.1621622 46.8857639,22.6452703 C46.3185501,13.7549776 41.0952619,5.89933325 33.2753472,2.17567568 Z"></path>
                            </g>
                            <path d="M157.965907,45.0199508 L158,45 C157.224945,45.2793118 156.470346,45.5940919 155.736203,45.94434 C147.32788,49.9575259 141.997726,58.2914274 142.000001,67.4214255 C142.000001,67.6142836 142.000001,67.8071418 142,68 C142.761875,67.9799153 143.51098,67.8043434 144.19902,67.4846032 C150.172172,64.7646378 153.745153,56.4451352 155.163435,50.6427642 C155.674835,48.5778517 156.155551,46.226977 157.965907,45.0199508 Z" fill="#632652"></path>
                            <path d="M176.269611,45.833888 C174.396466,44.9640565 172.418118,44.3474556 170.385629,44 C172.052513,44.3877031 173.541065,45.3329535 174.61011,46.6826021 C175.134027,47.4028258 175.568608,48.1852643 175.904126,49.0124054 C169.529845,46.1951715 162.253617,46.3472593 156,49.4284418 C157.484989,52.720121 162.09142,54.5140696 165.166764,55.7155825 C168.534056,57.0291478 171.936471,58.2306606 175.374007,59.320121 L172.33159,56.8239032 L179.20337,57.9288956 C179.277322,56.5465027 179.114692,55.1615786 178.722642,53.8350983 C180.039706,54.9068079 181.784815,55.2662632 183.213829,56.1649017 C185.890761,57.8723147 187.006973,61.1573374 188.465621,64.0030257 C188.850862,64.7552194 189.305249,65.5240545 190,66 C189.427786,57.241515 184.158456,49.5023386 176.269611,45.833888 Z" fill="#632652"></path>
                            <path d="M140,63 C140,63 164.572395,32.064132 193,63 L190.54276,56.069693 C190.54276,56.069693 177.203935,36.3447146 167.73028,40.601759 C158.256626,44.8588035 148.952321,47.888501 148.952321,47.888501 L140,63 Z" fill="#000000" opacity="0.1"></path>
                            <path d="M140,62 C140,62 164.572395,31.064132 193,62 L190.54276,55.069693 C190.54276,55.069693 177.203935,35.3447146 167.73028,39.601759 C158.256626,43.8588035 148.952321,46.888501 148.952321,46.888501 L140,62 Z" fill="#E14B5A"></path>
                            <path d="M120.563851,128 C120.563851,128 115.087921,141.858164 122.754222,154.329857 C130.420524,166.801549 116,172 116,172" fill="#000000" opacity="0.1"></path>
                            <path d="M203.576,115 C203.576,115 213.126776,126.539613 206.881236,136.855128 C200.635695,147.170643 201.004102,172 201.004102,172" fill="#000000" opacity="0.1"></path>
                            <path d="M112.329927,182 L212.666788,182 C217.269094,182 221,186.029437 221,191 L104,191 C104,186.030822 107.728904,182.001959 112.329927,182 Z" fill="#535461"></path>
                            <path d="M121.865679,124 L202.134321,124 C205.546511,124 208.818947,125.367967 211.23173,127.802964 C213.644513,130.237961 215,133.540525 215,136.984131 L215,184 L109,184 L109,136.984131 C109,129.813193 114.760161,124 121.865679,124 Z" fill="#535461"></path>
                            <circle fill="#FFFFFF" cx="162" cy="157" r="6"></circle>
                            <path d="M141,49 C141,49 165.055574,24.5510191 191,48.5525985" stroke="#000000" opacity="0.1"></path>
                            <rect fill="#6A5C99" x="194" y="47" width="3" height="14"></rect>
                            <path d="M192,56 C196.418278,56 200,59.9037598 200,64.7192915 L200,65.2807085 C200,70.0962402 196.418278,74 192,74 L192,56 Z" fill="#FFD037"></path>
                            <rect fill="#6A5C99" x="190" y="55" width="4" height="18" rx="2"></rect>
                            <rect fill="#6A5C99" transform="translate(136.500000, 54.000000) rotate(-180.000000) translate(-136.500000, -54.000000) " x="135" y="47" width="3" height="14"></rect>
                            <path d="M132,56 C136.418278,56 140,59.9037598 140,64.7192915 L140,65.2807085 C140,67.5932084 139.157145,69.8109943 137.656854,71.4461786 C136.156563,73.081363 134.121732,74 132,74 L132,56 Z" fill="#FFD037" transform="translate(136.000000, 65.000000) rotate(180.000000) translate(-136.000000, -65.000000) "></path>
                            <rect fill="#6A5C99" transform="translate(140.000000, 65.000000) rotate(-180.000000) translate(-140.000000, -65.000000) " x="138" y="56" width="4" height="18" rx="2"></rect>
                            <path d="M194.612527,31.884823 C191.328006,25.0048575 184.174459,16.6859888 168.754813,16.0200777 L168.754813,16 L168.568834,16 L163.105703,16.2610104 L163.105703,16.2877807 C147.789009,16.9971934 140.668673,25.2859456 137.394116,32.142487 C135.213217,36.7906255 134.055399,41.8588961 134,47 L135.886358,46.953152 L137.772715,46.9096503 C137.854104,42.3325646 138.898912,37.8250326 140.838047,33.6851252 C144.996004,25.0784758 152.647709,20.5041019 163.577292,20.0791235 L168.409423,19.8080743 C179.345649,20.2297064 187.000675,24.8107729 191.155311,33.414076 C193.097654,37.5555225 194.144753,42.0654562 194.227285,46.6452936 L196.113642,46.6887953 L198,46.7356434 C197.945724,41.5972968 196.7902,36.5314338 194.612527,31.884823 Z" fill="#FFD037"></path>
                            <rect fill="#D6D6E3" x="25" y="191" width="255" height="68"></rect>
                            <rect fill="#000000" opacity="0.1" x="25" y="195" width="255" height="9"></rect>
                            <rect fill="#D6D6E3" x="7" y="190" width="290" height="9"></rect>
                        </g>
                    </g>
                </g>
            </g>
        </g>
    </g>
</svg>